<?xml version="1.0" encoding="UTF-8"?>
<svg id="Calque_1" data-name="Calque 1" xmlns="http://www.w3.org/2000/svg" viewBox="0 0 780.88 267.7">
  <defs>
    <style>
      .cls-1 {
        fill: #00aae9;
      }

      .cls-2 {
        fill: #254497;
      }
    </style>
  </defs>
  <path class="cls-1" d="M53.63,190.88h13.02c10.64,0,21.27,0,31.91,0,2.37,0,2.4,0,2.91-2.36,2.32-10.69,4.63-21.37,6.94-32.06.48-2.23.47-2.25,2.76-2.25,6.8,0,13.6,0,20.39,0,2.26,0,2.24.02,2.01,2.24-1.55,15.05,1.91,28.71,11.3,40.71,4.13,5.28,9.11,9.64,14.92,12.99,1.24.72,1.66,1.47,1.42,2.86-.66,3.94-1.29,7.88-1.78,11.84-.17,1.39-.77,1.65-2.01,1.64-6.24-.05-12.48-.02-18.72-.02-.56,0-1.12,0-1.68,0-2.11.02-2.13.02-2.53,2.18-.55,2.98-1.06,5.97-1.59,8.96-1.64,9.27-3.28,18.55-4.93,27.82-.4,2.24-.42,2.25-2.73,2.25-12.56,0-25.11,0-37.67,0-.71,0-1.44.16-2.36-.37,2.75-13.41,5.52-26.91,8.36-40.78-5.3-.1-10.45-.04-15.59-.05-5.2-.01-10.4,0-15.6,0H.51c-.63-.45-.52-.87-.47-1.24,1.22-8.45,2.44-16.91,3.69-25.36.54-3.68,1.87-7.09,3.75-10.29,21.78-36.97,43.56-73.93,65.33-110.91.63-1.07,1.18-1.84,2.71-1.83,12.64.08,25.27.05,37.91.05.39,0,.77.06,1.52.12-2.72,5.7-5.81,10.97-8.67,16.35-2.88,5.43-5.85,10.82-8.77,16.23-2.93,5.41-5.85,10.82-8.77,16.24-2.88,5.34-5.77,10.68-8.65,16.03-2.92,5.41-5.84,10.83-8.77,16.24-2.92,5.41-5.86,10.82-8.78,16.23-2.91,5.39-5.81,10.78-8.92,16.55Z"/>
  <path class="cls-2" d="M496.43,190.49c.68-1.82.83-3.79,1.18-5.69,5.02-27.24,10-54.49,14.99-81.74.34-1.86.34-1.88,2.28-1.89,6.32-.01,12.64-.01,18.96,0,1.82,0,1.85.02,2.17,1.75,2.45,13.35,4.88,26.7,7.32,40.05,2.92,15.93,5.85,31.85,8.78,47.8.64-.35.65-.94.76-1.48,3.87-20.23,7.74-40.46,11.6-60.68,1.62-8.47,3.23-16.94,4.86-25.4.39-2.02.4-2.04,2.42-2.04,6.64,0,13.28,0,19.92,0,.62,0,1.29-.15,1.93.34-1.79,8.63-3.58,17.31-5.37,25.98-4.57,22.04-9.14,44.08-13.7,66.12-.83,3.99-1.64,7.98-2.47,11.96-.37,1.8-.39,1.82-2.36,1.82-10.32,0-20.64.01-30.96,0-2.37,0-2,.36-2.5-2.17-1.36-6.97-2.61-13.97-3.9-20.95-2.45-13.27-4.89-26.54-7.34-39.8-.11-.61-.15-1.27-.81-1.96-.67,3.51-1.33,6.87-1.96,10.23-3.26,17.42-6.52,34.84-9.78,52.26-.09.47-.25.93-.29,1.41-.05.68-.37,1.01-1.06,1-.56,0-1.12,0-1.68,0-9.84,0-19.68,0-29.52,0q-2.65,0-3.19-2.54c-3.53-16.79-7.06-33.59-10.59-50.38-3.64-17.34-7.28-34.68-10.92-52.03-.06-.31-.09-.62-.13-.91.57-.58,1.24-.36,1.85-.37,6.64-.02,13.28-.02,19.92,0,1.97,0,2.01.01,2.39,2.01,2.18,11.29,4.34,22.58,6.5,33.87,3.37,17.56,6.73,35.12,10.11,52.68.05.27-.02.66.59.75Z"/>
  <path class="cls-2" d="M334.06,179.04c-.56-5.65-2.49-10.7-6.59-14.78-2.13-2.11-4.68-3.55-7.53-4.67.19-.34.21-.42.27-.46.12-.1.25-.19.39-.26,6.73-3.25,10.59-8.77,12.5-15.82,1.14-4.21,1.34-8.51,1-12.83-.92-11.38-6.39-19.7-16.77-24.64-5.71-2.72-11.81-4.07-18.08-4.25-14.38-.4-28.78-.08-43.17-.18-1.2-.01-1.83.29-1.65,1.61.07.55.01,1.12.01,1.68v100.91c0,2.01.02,2.04,1.88,2.04,6.64.02,13.28.02,19.91,0,1.76,0,1.79-.03,1.79-1.87.01-7.91,0-15.82,0-23.73v-12.22c.01-2.38.02-2.39,2.31-2.4,3.19,0,6.39,0,9.59,0,2.96,0,5.91-.03,8.86.3,6.94.79,10.85,4.56,11.69,11.49.25,2.06.36,4.15.37,6.22.04,6.87.04,13.74-.01,20.61,0,1.23.33,1.65,1.61,1.64,6.71-.06,13.43-.02,20.15-.04,1.65,0,1.69-.04,1.69-1.75.02-5.35.01-10.71.01-16.06-.01-3.51.12-7.03-.23-10.54ZM310.37,136.32c-.94,6.55-4.95,10.52-11.61,11.49-1.66.24-3.32.4-5.01.38-4.63-.03-9.26,0-13.89-.02-1.8,0-1.83-.04-1.84-1.88,0-4.07,0-8.14,0-12.21s.03-8.29-.02-12.44c-.02-1.19.28-1.7,1.58-1.69,5.83.08,11.66.03,17.48.12,1.34.02,2.71.3,4.01.64,5.54,1.46,8.74,5.27,9.36,11.08.16,1.51.16,3.03-.06,4.53Z"/>
  <path class="cls-2" d="M695.88,154.29v-49.87c0-.48,0-.96,0-1.44.03-1.77.03-1.8,1.86-1.8,6.56-.01,13.12-.01,19.67,0,2.01,0,2.03.03,2.03,2.15,0,11.91,0,23.82,0,35.72,0,.48,0,.96,0,1.44,0,2.2-.11,2.08,2.09,2.08,11.12,0,22.23,0,33.35,0,2.34,0,2.28.25,2.28-2.39,0-11.91,0-23.82,0-35.72,0-.48,0-.96,0-1.44.04-1.8.04-1.83,1.88-1.83,6.64-.01,13.28-.01,19.91,0,1.87,0,1.89.03,1.89,2.05,0,8.23,0,16.46,0,24.69,0,25.41,0,50.83,0,76.24,0,.56-.06,1.13.01,1.68.19,1.35-.49,1.59-1.66,1.58-6.72-.04-13.44-.01-20.15-.02-1.86,0-1.88-.03-1.89-2.05,0-10.39,0-20.78,0-31.17,0-3.44.01-6.87,0-10.31-.01-1.73-.04-1.77-1.67-1.78-11.44-.01-22.87-.01-34.31,0-1.7,0-1.72.04-1.72,1.94,0,13.59,0,27.17,0,40.76,0,2.81.41,2.59-2.52,2.6-6.24,0-12.48.01-18.71,0-2.59,0-2.32.28-2.32-2.29,0-16.94,0-33.88,0-50.83Z"/>
  <path class="cls-2" d="M216.74,151.54c6.4,0,12.8,0,19.19,0,2.12,0,2.15.02,2.14,2.01-.01,6.23.24,12.46-.98,18.63-2.91,14.67-10.32,25.99-24.2,32.46-6.48,3.02-13.37,4.21-20.49,4.27-8.02.07-15.77-1.16-23.09-4.54-10.59-4.89-18.11-12.87-22.33-23.63-6.77-17.28-6.99-34.87-.2-52.15,6.4-16.28,18.75-25.62,36.05-28.31,9.4-1.46,18.67-.86,27.63,2.51,12.09,4.54,20.28,13.01,24.71,25.12.69,1.87.67,1.91-1.17,2.32-6.32,1.39-12.63,2.79-18.96,4.1-1.96.41-1.81.52-2.56-1.44-6.63-17.31-29.27-17.6-38.74-5.32-3.24,4.2-5.31,8.89-6.41,14.04-2.12,9.95-1.92,19.83,1.11,29.58.78,2.52,1.89,4.92,3.32,7.15,5.42,8.45,13.21,11.9,23.11,10.94,3.22-.31,6.29-1.12,9.15-2.65,6.64-3.56,10.04-9.35,11.39-16.56.21-1.14-.31-1.36-1.3-1.36-5.04.03-10.08.01-15.11.01q-3.63,0-3.63-3.68c0-3.84,0-7.67,0-11.51,0-1.96.02-1.98,1.95-1.99,6.48-.01,12.96,0,19.43,0Z"/>
  <path class="cls-2" d="M435.9,151.16c3.44,0,6.88.03,10.32-.02,1.12-.02,1.52.31,1.53,1.49.08,10.84-1.42,21.36-6.41,31.13-7.26,14.23-18.99,22.28-34.72,24.55-8.33,1.21-16.61.83-24.68-1.66-14.72-4.55-24.39-14.44-29.61-28.76-3.53-9.69-4.38-19.75-3.59-29.98.55-7.14,2-14.07,4.94-20.62,6.94-15.44,18.85-24.36,35.54-27.02,1.98-.32,3.98-.39,5.96-.58.86-.08,1.37.02,1.36,1.06-.03,5.75-.02,11.51,0,17.26,0,.8-.29,1.12-1.08,1.2-1.03.11-2.06.3-3.07.54-6.14,1.51-10.74,5.14-14.08,10.42-2.73,4.32-4.28,9.08-5.09,14.09-1.37,8.47-1.17,16.88,1.18,25.17,1.43,5.06,3.75,9.67,7.53,13.44,9.4,9.38,25.14,8.7,33.7-1.47,3.97-4.72,6.05-10.28,7.21-16.24.79-4.09,1.12-8.24.95-12.4-.05-1.24.29-1.67,1.57-1.64,3.52.08,7.04.03,10.56.03Z"/>
  <path class="cls-2" d="M653.8,163.91v40.51c0,.48-.06.97.01,1.44.2,1.34-.47,1.57-1.65,1.56-6.64-.04-13.27-.01-19.91-.03-1.89,0-1.91-.03-1.91-2.02,0-12.15,0-24.29,0-36.44,0-14.94,0-29.88,0-44.83,0-.48,0-.96,0-1.44-.03-2.06-.03-2.08-2.1-2.08-8.24,0-16.47,0-24.71,0-.48,0-.96-.04-1.44,0-1.11.1-1.6-.29-1.53-1.48.09-1.51.02-3.04.02-4.55,0-3.92.04-7.83-.02-11.75-.02-1.25.37-1.79,1.64-1.64.39.05.8,0,1.2,0,25.83,0,51.66,0,77.48,0,3.16,0,2.85-.39,2.85,2.78.01,4.79,0,9.59,0,14.38,0,2.4.12,2.25-2.17,2.25-8.4,0-16.79,0-25.19,0-.56,0-1.12,0-1.68,0-.58,0-.87.31-.88.89,0,.64-.01,1.28-.01,1.92,0,13.5,0,27.01,0,40.51Z"/>
  <path class="cls-2" d="M466.56,59.09v-2.55c0-17.66,0-35.33,0-52.99,0-.4,0-.8,0-1.2.02-2.42-.33-2.33,2.31-2.33,2.16,0,4.32.05,6.48-.02,1.07-.03,1.45.36,1.34,1.38-.04.39,0,.8,0,1.2,0,23.9,0,47.79,0,71.69,0,3.05.4,2.63-2.67,2.65-2.64.02-5.28-.08-7.92.04-1.5.07-2.24-.46-2.85-1.84-8.85-19.84-19.87-38.43-32.36-56.17-.6-.85-1.21-1.68-1.92-2.65-.66.9-.38,1.79-.38,2.59-.02,18.46,0,36.92-.02,55.39,0,2.94.42,2.62-2.72,2.64-2,.01-4-.03-6,.02-.97.02-1.53-.21-1.41-1.31.05-.47,0-.96,0-1.44,0-23.82,0-47.63,0-71.45,0-3.11-.42-2.69,2.6-2.72,2.48-.02,4.96.05,7.44-.03,1.22-.04,2.03.28,2.8,1.33,13.13,17.97,25.1,36.63,34.39,56.92.13.29.31.56.46.84h.43Z"/>
  <path class="cls-2" d="M339.73,56.05c-.39-6.89-3.61-12.16-10.43-14.69-.14-.05-.25-.16-.38-.23.26-.6.87-.66,1.36-.91,4.28-2.19,7.08-5.61,8.57-10.16.9-2.78,1.08-5.63,1.04-8.52-.15-9.31-5.15-16.34-13.93-19.5-4.03-1.45-8.21-2.03-12.48-2.02-8.08.01-16.16-.01-24.24,0-3.07,0-2.64-.23-2.64,2.73-.01,23.82,0,47.64,0,71.46,0,.48.03.96-.01,1.43-.07.9.26,1.31,1.21,1.3,2.88-.03,5.76-.04,8.64.01.96.01,1.28-.38,1.21-1.27-.04-.56-.01-1.12-.01-1.68,0-8.87,0-17.75.01-26.62,0-1.73.03-1.78,1.66-1.78,5.52,0,11.04.03,16.55.07,1.85.02,3.66.38,5.43.9,3.81,1.13,6.04,3.7,6.96,7.5.52,2.12.59,4.27.59,6.43,0,4.96.02,9.91-.02,14.87-.01,1.07.19,1.62,1.43,1.58,2.8-.07,5.6-.05,8.4-.01.92.02,1.25-.29,1.24-1.23-.05-6.55.21-13.12-.16-19.66ZM328.04,27.35c-1.39,5.18-5.08,7.73-10.11,8.66-1.4.26-2.85.41-4.29.43-4.8.05-9.6-.01-14.39.06-1.27.02-1.65-.41-1.63-1.65.06-4.07.02-8.15.02-12.23,0-3.83,0-7.67,0-11.51.01-1.89.03-1.92,1.76-1.93,5.12-.01,10.24.01,15.36,0,1.54,0,3.04.27,4.5.65,5.87,1.53,9.14,5.75,9.41,12.07.08,1.85-.16,3.67-.63,5.45Z"/>
  <path class="cls-2" d="M610.88,57.91c-.26-7.67-3.06-13.85-11.33-16.82,2.12-1.1,3.89-2,5.38-3.35,3.69-3.36,5.38-7.66,5.84-12.5,1.01-10.53-3.31-19.73-14.63-23.47-3.83-1.26-7.78-1.76-11.8-1.76-8,.02-15.99,0-23.98.02-3.11,0-2.71-.41-2.72,2.6,0,23.89,0,47.78,0,71.66,0,.56.01,1.12,0,1.68,0,.53.13.94.77.95h9.36c.73,0,.94-.43.91-1.08-.02-.56,0-1.12,0-1.68,0-8.95,0-17.9.01-26.84,0-1.68.03-1.72,1.68-1.72,5.36,0,10.72.03,16.07.05,2.01.02,3.98.36,5.9.95,3.48,1.07,5.73,3.34,6.69,6.87.66,2.41.84,4.87.85,7.36,0,4.87.03,9.74-.02,14.61-.02,1.13.28,1.55,1.47,1.52,2.63-.08,5.27-.01,7.91-.04,1.64,0,1.67-.04,1.68-1.76.01-5.75.16-11.51-.04-17.25ZM588.48,36.09c-3.34.49-6.7.37-10.05.38-2.71,0-5.43-.06-8.15.03-1.28.05-1.76-.41-1.6-1.63.01-.08,0-.16,0-.24v-11.74c0-4.07.03-8.14-.02-12.21-.01-1.11.27-1.54,1.47-1.53,5.35.07,10.7.04,16.05.06,1.53.01,3.01.34,4.47.77,5.54,1.65,8.65,5.63,8.88,11.4.07,1.75.06,3.5-.36,5.23-1.29,5.43-4.89,8.62-10.69,9.48Z"/>
  <path class="cls-2" d="M273.26,74.44c-2.93-9.2-5.86-18.39-8.8-27.58-4.78-14.97-9.56-29.94-14.34-44.9-.62-1.93-.63-1.93-2.6-1.94-4.15-.01-8.31,0-12.47,0q-2.42,0-3.13,2.22c-7.69,24.08-15.38,48.17-23.05,72.26-.23.72-.75,1.42-.38,2.43,3.06,0,6.17-.07,9.28.03,1.35.05,1.93-.38,2.31-1.7,1.74-6.06,3.6-12.08,5.43-18.11.54-1.79.56-1.8,2.44-1.8,8.79,0,17.58.03,26.38-.04,1.35-.01,1.98.37,2.35,1.7,1.08,3.92,2.29,7.8,3.46,11.7.71,2.37,1.45,4.73,2.15,7.1.2.65.43,1.14,1.27,1.13,3.42-.03,6.85-.01,10.45-.01-.3-.98-.51-1.74-.75-2.49ZM228.96,46.07c4.03-13.22,8.04-26.37,12.04-39.52.12-.01.24-.02.36-.03,3.97,13.11,7.93,26.22,11.96,39.55h-24.36Z"/>
  <path class="cls-2" d="M206.27,23.63c-.48-9.82-4.88-17.05-14.1-20.98C187.7.74,182.97.01,178.12.02c-7.52.01-15.03,0-22.55,0-.48,0-.96.01-1.44.01-.71-.01-1,.35-.97,1.03.02.56,0,1.12,0,1.68v67.39c0,1.84.03,3.68-.01,5.52-.03.9.27,1.3,1.22,1.29,2.88-.03,5.76-.04,8.64.01.96.01,1.27-.39,1.2-1.28-.04-.56-.01-1.12-.01-1.68,0-7.51,0-15.03.01-22.54,0-1.82.03-1.85,1.85-1.85,4.08-.02,8.16-.03,12.24,0,3.7.02,7.34-.47,10.87-1.57,7.92-2.44,13.62-7.25,16.05-15.39.88-2.93,1.21-5.96,1.05-9.01ZM194.68,28.53c-1.09,5.53-4.37,9.11-9.72,10.81-1.91.6-3.89.97-5.89,1-4.4.05-8.8.05-13.2.04-1.63,0-1.66-.04-1.66-1.78-.02-4.64-.01-9.27-.01-13.91s.01-9.27,0-13.91c0-.88.05-1.57,1.24-1.53,5.59.2,11.2-.44,16.77.4,8.03,1.23,12.54,6.42,12.73,14.58.04,1.44.02,2.88-.25,4.3Z"/>
  <path class="cls-2" d="M495.4,38.49c0-11.83,0-23.66,0-35.48,0-.56.03-1.12,0-1.68-.06-.88.23-1.37,1.2-1.31.48.03.96,0,1.44,0,13.44,0,26.87,0,40.31,0,.24,0,.48,0,.72,0,1.8.04,1.81.04,1.82,1.86.02,2.08-.02,4.16.01,6.23.01.81-.29,1.19-1.11,1.15-.56-.03-1.12,0-1.68,0-9.6,0-19.19,0-28.79,0-.4,0-.8-.01-1.2,0-1.62.05-1.64.05-1.66,1.8-.02,1.84,0,3.68,0,5.51,0,4.24,0,8.47,0,12.71,0,1.92.03,1.95,1.99,1.95,9.2,0,18.39,0,27.59,0,.56,0,1.12.02,1.68,0,.74-.03.96.36.96,1.04-.01,2.32-.01,4.64,0,6.95,0,.82-.39,1.13-1.18,1.1-.88-.03-1.76,0-2.64,0-8.8,0-17.59,0-26.39,0-1.98,0-2.01.02-2.01,1.91,0,7.83-.01,15.66,0,23.5,0,1.93.03,1.95,1.98,1.96,10.24,0,20.47,0,30.71,0,.56,0,1.12.02,1.68,0,.66-.02,1.07.19,1.06.94-.01,2.48,0,4.95,0,7.43,0,.6-.32.85-.88.86-.48,0-.96,0-1.44,0-13.92,0-27.83,0-41.75,0-.48,0-.96-.01-1.44,0-.71,0-.99-.35-.97-1.04.02-.56,0-1.12,0-1.68,0-11.91,0-23.82,0-35.72Z"/>
  <path class="cls-2" d="M383.08,43.05c0,10.63,0,21.26,0,31.88,0,2,.21,2.01-1.89,2.01-2.56-.01-5.12-.05-7.68.02-1.15.03-1.57-.36-1.5-1.52.09-1.35.02-2.72.02-4.07,0-19.82,0-39.63,0-59.45,0-3.08.26-2.63-2.71-2.64-6.56-.02-13.11,0-19.67-.01-1.91,0-1.93-.03-1.94-1.99-.02-2,.03-4-.01-5.99-.02-.93.34-1.32,1.26-1.25.48.04.96,0,1.44,0,18.15,0,36.3,0,54.45,0,3.06,0,2.59-.28,2.62,2.72.02,1.6.02,3.2,0,4.79-.02,1.67-.04,1.7-1.72,1.71-5.44.02-10.87,0-16.31,0-1.52,0-3.04-.02-4.56,0-1.77.02-1.8.04-1.8,1.9,0,10.63,0,21.26,0,31.88Z"/>
  <path class="cls-1" d="M440.48,123.5c0,5.83,0,11.66,0,17.48,0,1.96-.03,1.98-1.98,1.99-2.72.02-5.43.02-8.15,0-1.9-.01-1.93-.03-1.93-2.03-.01-7.26.01-14.53-.01-21.79-.02-4.13.54-3.6-3.75-3.62-5.43-.03-10.87,0-16.3-.01-1.83,0-1.85-.04-1.87-1.86-.02-2.71.05-5.43-.03-8.14-.04-1.3.48-1.64,1.68-1.62,3.67.05,7.35.02,11.02.02,6.39,0,12.78,0,19.17,0,2.11,0,2.14.03,2.14,2.11.01,5.83,0,11.66,0,17.48Z"/>
</svg>